X Lossless Decoder version 20101212 (126.2)

XLD extraction logfile from 2011-01-18 16:18:13 +0100

Miles Davis / Dark Magus: Live At Carnegie Hall (cd1) (1974)

Used drive : HL-DT-ST DVDRAM GP08NU20 (revision 1.01)

Ripper mode             : CDParanoia III 10.2
Disable audio cache     : OK for the drive with a cache less than 2750KiB
Make use of C2 pointers : NO
Read offset correction  : 102
Max retry count         : 100
Gap status              : Analyzed, Appended

TOC of the extracted CD
     Track |   Start  |  Length  | Start sector | End sector 
    ---------------------------------------------------------
        1  | 00:00:00 | 12:28:27 |         0    |    56126   
        2  | 12:28:27 | 12:39:70 |     56127    |   113121   
        3  | 25:08:22 | 14:20:35 |    113122    |   177656   
        4  | 39:28:57 | 10:44:18 |    177657    |   225974   

List of alternate offset correction values
        #  | Absolute | Relative | Confidence 
    ------------------------------------------
        1  |     73   |    -29   |      4     

AccurateRip Summary
    Track 01 : OK (confidence 28)
    Track 02 : OK (AR2, confidence 2)
    Track 03 : OK (AR2, confidence 2)
    Track 04 : OK (AR2, confidence 2)
        ->All tracks accurately ripped.

All Tracks
    Statistics
        Read error                           : 0
        Skipped (treated as error)           : 0
        Edge jitter error (maybe fixed)      : 0
        Atom jitter error (maybe fixed)      : 0
        Drift error (maybe fixed)            : 0
        Dropped bytes error (maybe fixed)    : 0
        Duplicated bytes error (maybe fixed) : 0

Track 01
    Filename : 01 Miles Davis - Moja (part 1).flac
    Pre-gap length : 00:02:00

    CRC32 hash             : 975C00D6
    CRC32 hash (skip zero) : 6BC87DDF
    AccurateRip signature  : F4245B91
        ->Accurately ripped! (confidence 28)
    Statistics
        Read error                           : 0
        Skipped (treated as error)           : 0
        Edge jitter error (maybe fixed)      : 0
        Atom jitter error (maybe fixed)      : 0
        Drift error (maybe fixed)            : 0
        Dropped bytes error (maybe fixed)    : 0
        Duplicated bytes error (maybe fixed) : 0

Track 02
    Filename : 02 Miles Davis - Moja (part 2).flac

    CRC32 hash             : 3C738437
    CRC32 hash (skip zero) : 9544B99F
    AccurateRip signature  : D1BDC78F
        ->Accurately ripped! (AR2, confidence 2)
    Statistics
        Read error                           : 0
        Skipped (treated as error)           : 0
        Edge jitter error (maybe fixed)      : 0
        Atom jitter error (maybe fixed)      : 0
        Drift error (maybe fixed)            : 0
        Dropped bytes error (maybe fixed)    : 0
        Duplicated bytes error (maybe fixed) : 0

Track 03
    Filename : 03 Miles Davis - Wili (part 1).flac

    CRC32 hash             : 13DBA4A6
    CRC32 hash (skip zero) : A78AFF44
    AccurateRip signature  : F09C2C7C
        ->Accurately ripped! (AR2, confidence 2)
    Statistics
        Read error                           : 0
        Skipped (treated as error)           : 0
        Edge jitter error (maybe fixed)      : 0
        Atom jitter error (maybe fixed)      : 0
        Drift error (maybe fixed)            : 0
        Dropped bytes error (maybe fixed)    : 0
        Duplicated bytes error (maybe fixed) : 0

Track 04
    Filename : 04 Miles Davis - Wili (part 2).flac

    CRC32 hash             : 4760E5F4
    CRC32 hash (skip zero) : B3F9E37B
    AccurateRip signature  : F99260E9
        ->Accurately ripped! (AR2, confidence 2)
    Statistics
        Read error                           : 0
        Skipped (treated as error)           : 0
        Edge jitter error (maybe fixed)      : 0
        Atom jitter error (maybe fixed)      : 0
        Drift error (maybe fixed)            : 0
        Dropped bytes error (maybe fixed)    : 0
        Duplicated bytes error (maybe fixed) : 0

No errors occurred

End of status report

__________________________________________________________________



X Lossless Decoder version 20101212 (126.2)

XLD extraction logfile from 2011-01-18 16:38:32 +0100

Miles Davis / Dark Magus: Live At Carnegie Hall - CD 2

Used drive : HL-DT-ST DVDRAM GP08NU20 (revision 1.01)

Ripper mode             : CDParanoia III 10.2
Disable audio cache     : OK for the drive with a cache less than 2750KiB
Make use of C2 pointers : NO
Read offset correction  : 102
Max retry count         : 100
Gap status              : Analyzed, Appended

TOC of the extracted CD
     Track |   Start  |  Length  | Start sector | End sector 
    ---------------------------------------------------------
        1  | 00:00:00 | 18:47:12 |         0    |    84536   
        2  | 18:47:12 | 06:31:70 |     84537    |   113931   
        3  | 25:19:07 | 15:19:35 |    113932    |   182891   
        4  | 40:38:42 | 10:11:33 |    182892    |   228749   

List of alternate offset correction values
        #  | Absolute | Relative | Confidence 
    ------------------------------------------
        1  |   -526   |   -628   |      4     

AccurateRip Summary
    Track 01 : OK (AR2, confidence 2)
    Track 02 : OK (AR2, confidence 2)
    Track 03 : OK (AR2, confidence 2)
    Track 04 : OK (AR2, confidence 2)
        ->All tracks accurately ripped.

All Tracks
    Statistics
        Read error                           : 0
        Skipped (treated as error)           : 0
        Edge jitter error (maybe fixed)      : 0
        Atom jitter error (maybe fixed)      : 0
        Drift error (maybe fixed)            : 0
        Dropped bytes error (maybe fixed)    : 0
        Duplicated bytes error (maybe fixed) : 0

Track 01
    Filename : 01 Miles Davis - Tatu (part 1).flac
    Pre-gap length : 00:02:00

    CRC32 hash             : 997B75A9
    CRC32 hash (skip zero) : 32AD0CC3
    AccurateRip signature  : 768B37B1
        ->Accurately ripped! (AR2, confidence 2)
    Statistics
        Read error                           : 0
        Skipped (treated as error)           : 0
        Edge jitter error (maybe fixed)      : 0
        Atom jitter error (maybe fixed)      : 0
        Drift error (maybe fixed)            : 0
        Dropped bytes error (maybe fixed)    : 0
        Duplicated bytes error (maybe fixed) : 0

Track 02
    Filename : 02 Miles Davis - Tatu (part 2) (''Calypso Frelimo'').flac

    CRC32 hash             : ADB74C87
    CRC32 hash (skip zero) : 82C68307
    AccurateRip signature  : 42A49667
        ->Accurately ripped! (AR2, confidence 2)
    Statistics
        Read error                           : 0
        Skipped (treated as error)           : 0
        Edge jitter error (maybe fixed)      : 0
        Atom jitter error (maybe fixed)      : 0
        Drift error (maybe fixed)            : 0
        Dropped bytes error (maybe fixed)    : 0
        Duplicated bytes error (maybe fixed) : 0

Track 03
    Filename : 03 Miles Davis - Nne (part 1) (''Ife'').flac
    Pre-gap length : 00:02:25

    CRC32 hash             : 21DF5F1B
    CRC32 hash (skip zero) : 792703B6
    AccurateRip signature  : 4234C9FE
        ->Accurately ripped! (AR2, confidence 2)
    Statistics
        Read error                           : 0
        Skipped (treated as error)           : 0
        Edge jitter error (maybe fixed)      : 0
        Atom jitter error (maybe fixed)      : 0
        Drift error (maybe fixed)            : 0
        Dropped bytes error (maybe fixed)    : 0
        Duplicated bytes error (maybe fixed) : 0

Track 04
    Filename : 04 Miles Davis - Nne (part 2).flac

    CRC32 hash             : 7BD1A914
    CRC32 hash (skip zero) : 4472728E
    AccurateRip signature  : F39C3B3F
        ->Accurately ripped! (AR2, confidence 2)
    Statistics
        Read error                           : 0
        Skipped (treated as error)           : 0
        Edge jitter error (maybe fixed)      : 0
        Atom jitter error (maybe fixed)      : 0
        Drift error (maybe fixed)            : 0
        Dropped bytes error (maybe fixed)    : 0
        Duplicated bytes error (maybe fixed) : 0

No errors occurred

End of status report
  